<svg xmlns="http://www.w3.org/2000/svg" xmlns:xlink="http://www.w3.org/1999/xlink" width="400" zoomAndPan="magnify" viewBox="0 0 300 74.999997" height="100" preserveAspectRatio="xMidYMid meet" version="1.0"><defs><g/><clipPath id="id1"><path d="M 25 12 L 62 12 L 62 63 L 25 63 Z M 25 12 " clip-rule="nonzero"/></clipPath><clipPath id="id2"><path d="M 68.839844 29.867188 L 50.765625 72.855469 L 7.777344 54.78125 L 25.851562 11.792969 Z M 68.839844 29.867188 " clip-rule="nonzero"/></clipPath><clipPath id="id3"><path d="M 68.839844 29.867188 L 50.765625 72.855469 L 7.777344 54.78125 L 25.851562 11.792969 Z M 68.839844 29.867188 " clip-rule="nonzero"/></clipPath><clipPath id="id4"><path d="M 25 40 L 56 40 L 56 55 L 25 55 Z M 25 40 " clip-rule="nonzero"/></clipPath><clipPath id="id5"><path d="M 68.839844 29.867188 L 50.765625 72.855469 L 7.777344 54.78125 L 25.851562 11.792969 Z M 68.839844 29.867188 " clip-rule="nonzero"/></clipPath><clipPath id="id6"><path d="M 68.839844 29.867188 L 50.765625 72.855469 L 7.777344 54.78125 L 25.851562 11.792969 Z M 68.839844 29.867188 " clip-rule="nonzero"/></clipPath><clipPath id="id7"><path d="M 25 26 L 35 26 L 35 36 L 25 36 Z M 25 26 " clip-rule="nonzero"/></clipPath><clipPath id="id8"><path d="M 68.839844 29.867188 L 50.765625 72.855469 L 7.777344 54.78125 L 25.851562 11.792969 Z M 68.839844 29.867188 " clip-rule="nonzero"/></clipPath><clipPath id="id9"><path d="M 68.839844 29.867188 L 50.765625 72.855469 L 7.777344 54.78125 L 25.851562 11.792969 Z M 68.839844 29.867188 " clip-rule="nonzero"/></clipPath><clipPath id="id10"><path d="M 38 28 L 49 28 L 49 38 L 38 38 Z M 38 28 " clip-rule="nonzero"/></clipPath><clipPath id="id11"><path d="M 68.839844 29.867188 L 50.765625 72.855469 L 7.777344 54.78125 L 25.851562 11.792969 Z M 68.839844 29.867188 " clip-rule="nonzero"/></clipPath><clipPath id="id12"><path d="M 68.839844 29.867188 L 50.765625 72.855469 L 7.777344 54.78125 L 25.851562 11.792969 Z M 68.839844 29.867188 " clip-rule="nonzero"/></clipPath><clipPath id="id13"><path d="M 26 13 L 35 13 L 35 22 L 26 22 Z M 26 13 " clip-rule="nonzero"/></clipPath><clipPath id="id14"><path d="M 68.839844 29.867188 L 50.765625 72.855469 L 7.777344 54.78125 L 25.851562 11.792969 Z M 68.839844 29.867188 " clip-rule="nonzero"/></clipPath><clipPath id="id15"><path d="M 68.839844 29.867188 L 50.765625 72.855469 L 7.777344 54.78125 L 25.851562 11.792969 Z M 68.839844 29.867188 " clip-rule="nonzero"/></clipPath><clipPath id="id16"><path d="M 25 42 L 32 42 L 32 52 L 25 52 Z M 25 42 " clip-rule="nonzero"/></clipPath><clipPath id="id17"><path d="M 68.839844 29.867188 L 50.765625 72.855469 L 7.777344 54.78125 L 25.851562 11.792969 Z M 68.839844 29.867188 " clip-rule="nonzero"/></clipPath><clipPath id="id18"><path d="M 68.839844 29.867188 L 50.765625 72.855469 L 7.777344 54.78125 L 25.851562 11.792969 Z M 68.839844 29.867188 " clip-rule="nonzero"/></clipPath><clipPath id="id19"><path d="M 34 38 L 44 38 L 44 49 L 34 49 Z M 34 38 " clip-rule="nonzero"/></clipPath><clipPath id="id20"><path d="M 68.839844 29.867188 L 50.765625 72.855469 L 7.777344 54.78125 L 25.851562 11.792969 Z M 68.839844 29.867188 " clip-rule="nonzero"/></clipPath><clipPath id="id21"><path d="M 68.839844 29.867188 L 50.765625 72.855469 L 7.777344 54.78125 L 25.851562 11.792969 Z M 68.839844 29.867188 " clip-rule="nonzero"/></clipPath><clipPath id="id22"><path d="M 22 11 L 59 11 L 59 63 L 22 63 Z M 22 11 " clip-rule="nonzero"/></clipPath><clipPath id="id23"><path d="M 65.832031 29.59375 L 47.757812 72.582031 L 4.769531 54.503906 L 22.84375 11.515625 Z M 65.832031 29.59375 " clip-rule="nonzero"/></clipPath><clipPath id="id24"><path d="M 65.832031 29.59375 L 47.757812 72.582031 L 4.769531 54.503906 L 22.84375 11.515625 Z M 65.832031 29.59375 " clip-rule="nonzero"/></clipPath><clipPath id="id25"><path d="M 22 40 L 53 40 L 53 55 L 22 55 Z M 22 40 " clip-rule="nonzero"/></clipPath><clipPath id="id26"><path d="M 65.832031 29.59375 L 47.757812 72.582031 L 4.769531 54.503906 L 22.84375 11.515625 Z M 65.832031 29.59375 " clip-rule="nonzero"/></clipPath><clipPath id="id27"><path d="M 65.832031 29.59375 L 47.757812 72.582031 L 4.769531 54.503906 L 22.84375 11.515625 Z M 65.832031 29.59375 " clip-rule="nonzero"/></clipPath><clipPath id="id28"><path d="M 22 26 L 32 26 L 32 36 L 22 36 Z M 22 26 " clip-rule="nonzero"/></clipPath><clipPath id="id29"><path d="M 65.832031 29.59375 L 47.757812 72.582031 L 4.769531 54.503906 L 22.84375 11.515625 Z M 65.832031 29.59375 " clip-rule="nonzero"/></clipPath><clipPath id="id30"><path d="M 65.832031 29.59375 L 47.757812 72.582031 L 4.769531 54.503906 L 22.84375 11.515625 Z M 65.832031 29.59375 " clip-rule="nonzero"/></clipPath><clipPath id="id31"><path d="M 35 27 L 46 27 L 46 38 L 35 38 Z M 35 27 " clip-rule="nonzero"/></clipPath><clipPath id="id32"><path d="M 65.832031 29.59375 L 47.757812 72.582031 L 4.769531 54.503906 L 22.84375 11.515625 Z M 65.832031 29.59375 " clip-rule="nonzero"/></clipPath><clipPath id="id33"><path d="M 65.832031 29.59375 L 47.757812 72.582031 L 4.769531 54.503906 L 22.84375 11.515625 Z M 65.832031 29.59375 " clip-rule="nonzero"/></clipPath><clipPath id="id34"><path d="M 23 13 L 32 13 L 32 22 L 23 22 Z M 23 13 " clip-rule="nonzero"/></clipPath><clipPath id="id35"><path d="M 65.832031 29.59375 L 47.757812 72.582031 L 4.769531 54.503906 L 22.84375 11.515625 Z M 65.832031 29.59375 " clip-rule="nonzero"/></clipPath><clipPath id="id36"><path d="M 65.832031 29.59375 L 47.757812 72.582031 L 4.769531 54.503906 L 22.84375 11.515625 Z M 65.832031 29.59375 " clip-rule="nonzero"/></clipPath><clipPath id="id37"><path d="M 22 41 L 29 41 L 29 52 L 22 52 Z M 22 41 " clip-rule="nonzero"/></clipPath><clipPath id="id38"><path d="M 65.832031 29.59375 L 47.757812 72.582031 L 4.769531 54.503906 L 22.84375 11.515625 Z M 65.832031 29.59375 " clip-rule="nonzero"/></clipPath><clipPath id="id39"><path d="M 65.832031 29.59375 L 47.757812 72.582031 L 4.769531 54.503906 L 22.84375 11.515625 Z M 65.832031 29.59375 " clip-rule="nonzero"/></clipPath><clipPath id="id40"><path d="M 31 38 L 41 38 L 41 49 L 31 49 Z M 31 38 " clip-rule="nonzero"/></clipPath><clipPath id="id41"><path d="M 65.832031 29.59375 L 47.757812 72.582031 L 4.769531 54.503906 L 22.84375 11.515625 Z M 65.832031 29.59375 " clip-rule="nonzero"/></clipPath><clipPath id="id42"><path d="M 65.832031 29.59375 L 47.757812 72.582031 L 4.769531 54.503906 L 22.84375 11.515625 Z M 65.832031 29.59375 " clip-rule="nonzero"/></clipPath><clipPath id="id43"><path d="M 215 25 L 236 25 L 236 52 L 215 52 Z M 215 25 " clip-rule="nonzero"/></clipPath><clipPath id="id44"><path d="M 241.898438 42.164062 L 225.175781 58.882812 L 208.453125 42.164062 L 225.175781 25.441406 Z M 241.898438 42.164062 " clip-rule="nonzero"/></clipPath><clipPath id="id45"><path d="M 241.898438 42.164062 L 225.175781 58.882812 L 208.453125 42.164062 L 225.175781 25.441406 Z M 241.898438 42.164062 " clip-rule="nonzero"/></clipPath><clipPath id="id46"><path d="M 217 44 L 234 44 L 234 48 L 217 48 Z M 217 44 " clip-rule="nonzero"/></clipPath><clipPath id="id47"><path d="M 241.898438 42.164062 L 225.175781 58.882812 L 208.453125 42.164062 L 225.175781 25.441406 Z M 241.898438 42.164062 " clip-rule="nonzero"/></clipPath><clipPath id="id48"><path d="M 241.898438 42.164062 L 225.175781 58.882812 L 208.453125 42.164062 L 225.175781 25.441406 Z M 241.898438 42.164062 " clip-rule="nonzero"/></clipPath><clipPath id="id49"><path d="M 220 32 L 226 32 L 226 38 L 220 38 Z M 220 32 " clip-rule="nonzero"/></clipPath><clipPath id="id50"><path d="M 241.898438 42.164062 L 225.175781 58.882812 L 208.453125 42.164062 L 225.175781 25.441406 Z M 241.898438 42.164062 " clip-rule="nonzero"/></clipPath><clipPath id="id51"><path d="M 241.898438 42.164062 L 225.175781 58.882812 L 208.453125 42.164062 L 225.175781 25.441406 Z M 241.898438 42.164062 " clip-rule="nonzero"/></clipPath><clipPath id="id52"><path d="M 226 36 L 232 36 L 232 42 L 226 42 Z M 226 36 " clip-rule="nonzero"/></clipPath><clipPath id="id53"><path d="M 241.898438 42.164062 L 225.175781 58.882812 L 208.453125 42.164062 L 225.175781 25.441406 Z M 241.898438 42.164062 " clip-rule="nonzero"/></clipPath><clipPath id="id54"><path d="M 241.898438 42.164062 L 225.175781 58.882812 L 208.453125 42.164062 L 225.175781 25.441406 Z M 241.898438 42.164062 " clip-rule="nonzero"/></clipPath><clipPath id="id55"><path d="M 224 26 L 228 26 L 228 32 L 224 32 Z M 224 26 " clip-rule="nonzero"/></clipPath><clipPath id="id56"><path d="M 241.898438 42.164062 L 225.175781 58.882812 L 208.453125 42.164062 L 225.175781 25.441406 Z M 241.898438 42.164062 " clip-rule="nonzero"/></clipPath><clipPath id="id57"><path d="M 241.898438 42.164062 L 225.175781 58.882812 L 208.453125 42.164062 L 225.175781 25.441406 Z M 241.898438 42.164062 " clip-rule="nonzero"/></clipPath><clipPath id="id58"><path d="M 217 39 L 222 39 L 222 45 L 217 45 Z M 217 39 " clip-rule="nonzero"/></clipPath><clipPath id="id59"><path d="M 241.898438 42.164062 L 225.175781 58.882812 L 208.453125 42.164062 L 225.175781 25.441406 Z M 241.898438 42.164062 " clip-rule="nonzero"/></clipPath><clipPath id="id60"><path d="M 241.898438 42.164062 L 225.175781 58.882812 L 208.453125 42.164062 L 225.175781 25.441406 Z M 241.898438 42.164062 " clip-rule="nonzero"/></clipPath><clipPath id="id61"><path d="M 222 40 L 228 40 L 228 46 L 222 46 Z M 222 40 " clip-rule="nonzero"/></clipPath><clipPath id="id62"><path d="M 241.898438 42.164062 L 225.175781 58.882812 L 208.453125 42.164062 L 225.175781 25.441406 Z M 241.898438 42.164062 " clip-rule="nonzero"/></clipPath><clipPath id="id63"><path d="M 241.898438 42.164062 L 225.175781 58.882812 L 208.453125 42.164062 L 225.175781 25.441406 Z M 241.898438 42.164062 " clip-rule="nonzero"/></clipPath><clipPath id="id64"><path d="M 213 24 L 234 24 L 234 51 L 213 51 Z M 213 24 " clip-rule="nonzero"/></clipPath><clipPath id="id65"><path d="M 240.535156 41.457031 L 223.816406 58.179688 L 207.09375 41.457031 L 223.816406 24.734375 Z M 240.535156 41.457031 " clip-rule="nonzero"/></clipPath><clipPath id="id66"><path d="M 240.535156 41.457031 L 223.816406 58.179688 L 207.09375 41.457031 L 223.816406 24.734375 Z M 240.535156 41.457031 " clip-rule="nonzero"/></clipPath><clipPath id="id67"><path d="M 215 43 L 232 43 L 232 47 L 215 47 Z M 215 43 " clip-rule="nonzero"/></clipPath><clipPath id="id68"><path d="M 240.535156 41.457031 L 223.816406 58.179688 L 207.09375 41.457031 L 223.816406 24.734375 Z M 240.535156 41.457031 " clip-rule="nonzero"/></clipPath><clipPath id="id69"><path d="M 240.535156 41.457031 L 223.816406 58.179688 L 207.09375 41.457031 L 223.816406 24.734375 Z M 240.535156 41.457031 " clip-rule="nonzero"/></clipPath><clipPath id="id70"><path d="M 219 32 L 225 32 L 225 37 L 219 37 Z M 219 32 " clip-rule="nonzero"/></clipPath><clipPath id="id71"><path d="M 240.535156 41.457031 L 223.816406 58.179688 L 207.09375 41.457031 L 223.816406 24.734375 Z M 240.535156 41.457031 " clip-rule="nonzero"/></clipPath><clipPath id="id72"><path d="M 240.535156 41.457031 L 223.816406 58.179688 L 207.09375 41.457031 L 223.816406 24.734375 Z M 240.535156 41.457031 " clip-rule="nonzero"/></clipPath><clipPath id="id73"><path d="M 225 35 L 231 35 L 231 41 L 225 41 Z M 225 35 " clip-rule="nonzero"/></clipPath><clipPath id="id74"><path d="M 240.535156 41.457031 L 223.816406 58.179688 L 207.09375 41.457031 L 223.816406 24.734375 Z M 240.535156 41.457031 " clip-rule="nonzero"/></clipPath><clipPath id="id75"><path d="M 240.535156 41.457031 L 223.816406 58.179688 L 207.09375 41.457031 L 223.816406 24.734375 Z M 240.535156 41.457031 " clip-rule="nonzero"/></clipPath><clipPath id="id76"><path d="M 222 26 L 227 26 L 227 31 L 222 31 Z M 222 26 " clip-rule="nonzero"/></clipPath><clipPath id="id77"><path d="M 240.535156 41.457031 L 223.816406 58.179688 L 207.09375 41.457031 L 223.816406 24.734375 Z M 240.535156 41.457031 " clip-rule="nonzero"/></clipPath><clipPath id="id78"><path d="M 240.535156 41.457031 L 223.816406 58.179688 L 207.09375 41.457031 L 223.816406 24.734375 Z M 240.535156 41.457031 " clip-rule="nonzero"/></clipPath><clipPath id="id79"><path d="M 216 39 L 221 39 L 221 44 L 216 44 Z M 216 39 " clip-rule="nonzero"/></clipPath><clipPath id="id80"><path d="M 240.535156 41.457031 L 223.816406 58.179688 L 207.09375 41.457031 L 223.816406 24.734375 Z M 240.535156 41.457031 " clip-rule="nonzero"/></clipPath><clipPath id="id81"><path d="M 240.535156 41.457031 L 223.816406 58.179688 L 207.09375 41.457031 L 223.816406 24.734375 Z M 240.535156 41.457031 " clip-rule="nonzero"/></clipPath><clipPath id="id82"><path d="M 221 39 L 227 39 L 227 45 L 221 45 Z M 221 39 " clip-rule="nonzero"/></clipPath><clipPath id="id83"><path d="M 240.535156 41.457031 L 223.816406 58.179688 L 207.09375 41.457031 L 223.816406 24.734375 Z M 240.535156 41.457031 " clip-rule="nonzero"/></clipPath><clipPath id="id84"><path d="M 240.535156 41.457031 L 223.816406 58.179688 L 207.09375 41.457031 L 223.816406 24.734375 Z M 240.535156 41.457031 " clip-rule="nonzero"/></clipPath></defs><g clip-path="url(#id1)"><g clip-path="url(#id2)"><g clip-path="url(#id3)"><path fill="#e78d00" d="M 25.566406 12.722656 C 25.664062 12.488281 25.851562 12.300781 26.09375 12.199219 C 26.453125 12.050781 26.867188 12.136719 27.144531 12.414062 L 61.042969 46.613281 C 61.375 46.945312 61.417969 47.472656 61.144531 47.851562 C 60.929688 48.15625 55.707031 55.402344 45.429688 59.597656 C 35.148438 63.792969 26.347656 62.265625 25.976562 62.199219 C 25.515625 62.117188 25.179688 61.710938 25.183594 61.238281 L 25.488281 13.089844 C 25.492188 12.960938 25.519531 12.835938 25.566406 12.722656 Z M 59.074219 47.371094 L 27.410156 15.433594 L 27.125 60.402344 C 29.476562 60.660156 36.691406 61.074219 44.699219 57.808594 C 52.730469 54.53125 57.578125 49.195312 59.074219 47.371094 Z M 59.074219 47.371094 " fill-opacity="1" fill-rule="nonzero"/></g></g></g><g clip-path="url(#id4)"><g clip-path="url(#id5)"><g clip-path="url(#id6)"><path fill="#e78d00" d="M 25.585938 52.613281 C 25.792969 52.121094 26.355469 51.890625 26.847656 52.09375 C 26.902344 52.117188 32.039062 54.105469 41.597656 50.207031 C 51.160156 46.304688 53.4375 41.285156 53.460938 41.238281 C 53.671875 40.746094 54.238281 40.519531 54.726562 40.730469 C 55.21875 40.9375 55.449219 41.5 55.242188 41.992188 C 55.140625 42.226562 52.714844 47.761719 42.328125 52 C 31.941406 56.238281 26.335938 53.976562 26.101562 53.878906 C 25.609375 53.671875 25.378906 53.105469 25.585938 52.613281 Z M 25.585938 52.613281 " fill-opacity="1" fill-rule="nonzero"/></g></g></g><g clip-path="url(#id7)"><g clip-path="url(#id8)"><g clip-path="url(#id9)"><path fill="#e78d00" d="M 25.464844 28.34375 C 25.5 28.265625 25.546875 28.1875 25.601562 28.117188 C 26.945312 26.425781 29.269531 25.824219 31.25 26.65625 C 33.710938 27.691406 34.871094 30.53125 33.835938 32.992188 C 32.800781 35.453125 29.960938 36.609375 27.5 35.574219 C 26.742188 35.257812 26.089844 34.75 25.5625 34.0625 C 25.429688 33.894531 25.359375 33.683594 25.359375 33.46875 L 25.390625 28.710938 C 25.390625 28.585938 25.417969 28.460938 25.464844 28.34375 Z M 32.050781 32.242188 C 32.671875 30.765625 31.976562 29.0625 30.5 28.441406 C 29.414062 27.984375 28.148438 28.25 27.324219 29.085938 L 27.296875 33.121094 C 27.574219 33.417969 27.894531 33.640625 28.25 33.792969 C 29.726562 34.414062 31.433594 33.71875 32.050781 32.242188 Z M 32.050781 32.242188 " fill-opacity="1" fill-rule="nonzero"/></g></g></g><g clip-path="url(#id10)"><g clip-path="url(#id11)"><g clip-path="url(#id12)"><path fill="#e78d00" d="M 38.902344 30.925781 C 39.46875 29.574219 40.617188 28.566406 42.050781 28.160156 C 42.390625 28.066406 42.753906 28.160156 43 28.410156 L 47.746094 33.199219 C 47.992188 33.445312 48.085938 33.8125 47.988281 34.148438 C 47.921875 34.390625 47.882812 34.53125 47.820312 34.675781 C 46.789062 37.132812 43.945312 38.292969 41.488281 37.257812 C 39.03125 36.226562 37.867188 33.382812 38.902344 30.925781 Z M 42.070312 30.21875 C 41.445312 30.527344 40.957031 31.035156 40.6875 31.675781 C 40.066406 33.148438 40.761719 34.855469 42.238281 35.476562 C 43.644531 36.066406 45.257812 35.464844 45.945312 34.125 Z M 42.070312 30.21875 " fill-opacity="1" fill-rule="nonzero"/></g></g></g><g clip-path="url(#id13)"><g clip-path="url(#id14)"><g clip-path="url(#id15)"><path fill="#e78d00" d="M 26.601562 15.253906 C 26.761719 14.867188 26.992188 14.492188 27.304688 14.105469 C 27.480469 13.890625 27.734375 13.761719 28.011719 13.746094 C 28.285156 13.734375 28.550781 13.835938 28.746094 14.03125 L 34.140625 19.472656 C 34.332031 19.664062 34.433594 19.933594 34.417969 20.210938 C 34.398438 20.488281 34.265625 20.742188 34.050781 20.910156 C 32.664062 22.007812 30.796875 22.269531 29.183594 21.589844 C 26.726562 20.554688 25.566406 17.714844 26.601562 15.253906 Z M 31.851562 19.910156 L 28.277344 16.304688 C 27.859375 17.707031 28.558594 19.226562 29.933594 19.804688 C 30.546875 20.0625 31.222656 20.09375 31.851562 19.910156 Z M 31.851562 19.910156 " fill-opacity="1" fill-rule="nonzero"/></g></g></g><g clip-path="url(#id16)"><g clip-path="url(#id17)"><g clip-path="url(#id18)"><path fill="#e78d00" d="M 25.375 42.707031 C 25.5 42.414062 25.765625 42.191406 26.097656 42.132812 C 27.019531 41.960938 27.960938 42.066406 28.820312 42.425781 C 31.277344 43.460938 32.4375 46.300781 31.402344 48.761719 C 30.523438 50.855469 28.265625 52.0625 26.039062 51.636719 C 25.578125 51.546875 25.25 51.148438 25.253906 50.679688 L 25.304688 43.074219 C 25.300781 42.945312 25.328125 42.820312 25.375 42.707031 Z M 29.621094 48.011719 C 30.238281 46.535156 29.542969 44.832031 28.070312 44.210938 C 27.800781 44.097656 27.519531 44.027344 27.230469 44 L 27.195312 49.777344 C 28.242188 49.683594 29.195312 49.019531 29.621094 48.011719 Z M 29.621094 48.011719 " fill-opacity="1" fill-rule="nonzero"/></g></g></g><g clip-path="url(#id19)"><g clip-path="url(#id20)"><g clip-path="url(#id21)"><path fill="#e78d00" d="M 34.402344 41.625 C 35.4375 39.167969 38.28125 38.007812 40.738281 39.042969 C 43.195312 40.074219 44.355469 42.917969 43.320312 45.378906 C 42.289062 47.835938 39.445312 48.996094 36.988281 47.960938 C 34.53125 46.925781 33.367188 44.085938 34.402344 41.625 Z M 41.539062 44.625 C 42.160156 43.152344 41.460938 41.445312 39.988281 40.828125 C 38.511719 40.207031 36.808594 40.902344 36.1875 42.375 C 35.566406 43.851562 36.261719 45.558594 37.738281 46.175781 C 39.210938 46.796875 40.917969 46.101562 41.539062 44.625 Z M 41.539062 44.625 " fill-opacity="1" fill-rule="nonzero"/></g></g></g><g clip-path="url(#id22)"><g clip-path="url(#id23)"><g clip-path="url(#id24)"><path fill="#f8c700" d="M 22.558594 12.445312 C 22.65625 12.214844 22.84375 12.023438 23.085938 11.925781 C 23.445312 11.777344 23.859375 11.859375 24.136719 12.140625 L 58.035156 46.335938 C 58.367188 46.671875 58.410156 47.199219 58.140625 47.578125 C 57.921875 47.882812 52.699219 55.128906 42.421875 59.324219 C 32.140625 63.519531 23.339844 61.992188 22.96875 61.925781 C 22.507812 61.839844 22.171875 61.433594 22.175781 60.964844 L 22.480469 12.8125 C 22.484375 12.6875 22.511719 12.5625 22.558594 12.445312 Z M 56.066406 47.09375 L 24.402344 15.15625 L 24.117188 60.128906 C 26.46875 60.382812 33.683594 60.800781 41.691406 57.535156 C 49.722656 54.257812 54.570312 48.921875 56.066406 47.09375 Z M 56.066406 47.09375 " fill-opacity="1" fill-rule="nonzero"/></g></g></g><g clip-path="url(#id25)"><g clip-path="url(#id26)"><g clip-path="url(#id27)"><path fill="#f8c700" d="M 22.578125 52.339844 C 22.785156 51.847656 23.347656 51.617188 23.839844 51.820312 C 23.894531 51.839844 29.03125 53.832031 38.589844 49.929688 C 48.152344 46.03125 50.429688 41.011719 50.453125 40.960938 C 50.664062 40.472656 51.230469 40.246094 51.71875 40.457031 C 52.210938 40.664062 52.441406 41.226562 52.234375 41.71875 C 52.136719 41.953125 49.707031 47.488281 39.320312 51.726562 C 28.933594 55.964844 23.328125 53.703125 23.09375 53.605469 C 22.601562 53.398438 22.371094 52.832031 22.578125 52.339844 Z M 22.578125 52.339844 " fill-opacity="1" fill-rule="nonzero"/></g></g></g><g clip-path="url(#id28)"><g clip-path="url(#id29)"><g clip-path="url(#id30)"><path fill="#f8c700" d="M 22.457031 28.070312 C 22.492188 27.992188 22.539062 27.914062 22.59375 27.84375 C 23.9375 26.152344 26.261719 25.550781 28.242188 26.382812 C 30.703125 27.417969 31.863281 30.257812 30.828125 32.71875 C 29.792969 35.175781 26.953125 36.335938 24.492188 35.300781 C 23.734375 34.980469 23.082031 34.472656 22.554688 33.789062 C 22.421875 33.617188 22.351562 33.410156 22.355469 33.191406 L 22.382812 28.4375 C 22.382812 28.3125 22.410156 28.1875 22.457031 28.070312 Z M 29.042969 31.96875 C 29.664062 30.492188 28.96875 28.785156 27.492188 28.167969 C 26.40625 27.707031 25.140625 27.976562 24.316406 28.8125 L 24.289062 32.847656 C 24.566406 33.144531 24.886719 33.367188 25.242188 33.519531 C 26.71875 34.136719 28.425781 33.441406 29.042969 31.96875 Z M 29.042969 31.96875 " fill-opacity="1" fill-rule="nonzero"/></g></g></g><g clip-path="url(#id31)"><g clip-path="url(#id32)"><g clip-path="url(#id33)"><path fill="#f8c700" d="M 35.894531 30.648438 C 36.460938 29.300781 37.609375 28.292969 39.042969 27.886719 C 39.382812 27.792969 39.746094 27.886719 39.992188 28.136719 L 44.738281 32.921875 C 44.984375 33.171875 45.078125 33.535156 44.980469 33.875 C 44.914062 34.113281 44.875 34.257812 44.8125 34.398438 C 43.78125 36.859375 40.9375 38.019531 38.480469 36.984375 C 36.023438 35.949219 34.863281 33.109375 35.894531 30.648438 Z M 39.0625 29.941406 C 38.4375 30.25 37.949219 30.757812 37.679688 31.398438 C 37.058594 32.875 37.753906 34.582031 39.230469 35.199219 C 40.636719 35.792969 42.25 35.1875 42.9375 33.851562 Z M 39.0625 29.941406 " fill-opacity="1" fill-rule="nonzero"/></g></g></g><g clip-path="url(#id34)"><g clip-path="url(#id35)"><g clip-path="url(#id36)"><path fill="#f8c700" d="M 23.59375 14.980469 C 23.753906 14.59375 23.984375 14.21875 24.296875 13.832031 C 24.472656 13.617188 24.726562 13.488281 25.003906 13.472656 C 25.277344 13.457031 25.542969 13.5625 25.738281 13.757812 L 31.132812 19.195312 C 31.324219 19.390625 31.425781 19.660156 31.410156 19.933594 C 31.390625 20.210938 31.257812 20.46875 31.042969 20.636719 C 29.65625 21.734375 27.789062 21.992188 26.175781 21.316406 C 23.71875 20.28125 22.558594 17.441406 23.59375 14.980469 Z M 28.84375 19.636719 L 25.269531 16.03125 C 24.851562 17.429688 25.550781 18.953125 26.925781 19.53125 C 27.539062 19.789062 28.214844 19.820312 28.84375 19.636719 Z M 28.84375 19.636719 " fill-opacity="1" fill-rule="nonzero"/></g></g></g><g clip-path="url(#id37)"><g clip-path="url(#id38)"><g clip-path="url(#id39)"><path fill="#f8c700" d="M 22.367188 42.433594 C 22.492188 42.136719 22.757812 41.917969 23.089844 41.855469 C 24.011719 41.6875 24.953125 41.792969 25.8125 42.152344 C 28.269531 43.1875 29.429688 46.027344 28.394531 48.488281 C 27.515625 50.582031 25.257812 51.789062 23.03125 51.363281 C 22.570312 51.273438 22.242188 50.871094 22.246094 50.40625 L 22.296875 42.800781 C 22.292969 42.671875 22.320312 42.546875 22.367188 42.433594 Z M 26.613281 47.738281 C 27.230469 46.261719 26.535156 44.558594 25.0625 43.9375 C 24.792969 43.824219 24.511719 43.753906 24.222656 43.726562 L 24.1875 49.5 C 25.234375 49.410156 26.1875 48.742188 26.613281 47.738281 Z M 26.613281 47.738281 " fill-opacity="1" fill-rule="nonzero"/></g></g></g><g clip-path="url(#id40)"><g clip-path="url(#id41)"><g clip-path="url(#id42)"><path fill="#f8c700" d="M 31.394531 41.351562 C 32.429688 38.890625 35.273438 37.734375 37.730469 38.769531 C 40.1875 39.800781 41.347656 42.640625 40.3125 45.101562 C 39.28125 47.5625 36.4375 48.71875 33.980469 47.6875 C 31.523438 46.652344 30.359375 43.8125 31.394531 41.351562 Z M 38.53125 44.351562 C 39.152344 42.878906 38.453125 41.171875 36.980469 40.550781 C 35.503906 39.929688 33.800781 40.628906 33.179688 42.101562 C 32.558594 43.578125 33.253906 45.28125 34.730469 45.902344 C 36.203125 46.523438 37.910156 45.828125 38.53125 44.351562 Z M 38.53125 44.351562 " fill-opacity="1" fill-rule="nonzero"/></g></g></g><g fill="#000000" fill-opacity="1"><g transform="translate(67.53709, 51.079402)"><g><path d="M 12.015625 -16.265625 L 16.46875 -25.84375 L 24.046875 -25.84375 L 15.53125 -10.09375 L 15.53125 0 L 8.5 0 L 8.5 -9.875 L 0 -25.84375 L 7.59375 -25.84375 Z M 12.015625 -16.265625 "/></g></g></g><g fill="#000000" fill-opacity="1"><g transform="translate(93.3896, 51.079402)"><g><path d="M 24.765625 -25.84375 L 24.765625 -10.28125 C 24.765625 -6.90625 23.804688 -4.285156 21.890625 -2.421875 C 19.972656 -0.566406 17.210938 0.359375 13.609375 0.359375 C 10.085938 0.359375 7.378906 -0.539062 5.484375 -2.34375 C 3.597656 -4.15625 2.65625 -6.75 2.65625 -10.125 L 2.65625 -25.84375 L 9.671875 -25.84375 L 9.671875 -10.671875 C 9.671875 -8.847656 10.007812 -7.523438 10.6875 -6.703125 C 11.375 -5.878906 12.382812 -5.46875 13.71875 -5.46875 C 15.144531 -5.46875 16.175781 -5.875 16.8125 -6.6875 C 17.457031 -7.507812 17.78125 -8.851562 17.78125 -10.71875 L 17.78125 -25.84375 Z M 24.765625 -25.84375 "/></g></g></g><g fill="#000000" fill-opacity="1"><g transform="translate(122.600908, 51.079402)"><g><path d="M 14.046875 0 L 8.765625 -18.609375 L 8.609375 -18.609375 C 8.859375 -15.441406 8.984375 -12.976562 8.984375 -11.21875 L 8.984375 0 L 2.796875 0 L 2.796875 -25.84375 L 12.09375 -25.84375 L 17.484375 -7.5 L 17.625 -7.5 L 22.90625 -25.84375 L 32.21875 -25.84375 L 32.21875 0 L 25.8125 0 L 25.8125 -11.328125 C 25.8125 -11.921875 25.816406 -12.578125 25.828125 -13.296875 C 25.847656 -14.015625 25.929688 -15.773438 26.078125 -18.578125 L 25.921875 -18.578125 L 20.703125 0 Z M 14.046875 0 "/></g></g></g><g fill="#000000" fill-opacity="1"><g transform="translate(159.413703, 51.079402)"><g><path d="M 19.6875 -7.84375 C 19.6875 -6.238281 19.28125 -4.816406 18.46875 -3.578125 C 17.65625 -2.335938 16.484375 -1.367188 14.953125 -0.671875 C 13.421875 0.015625 11.625 0.359375 9.5625 0.359375 C 7.84375 0.359375 6.398438 0.238281 5.234375 0 C 4.066406 -0.25 2.851562 -0.671875 1.59375 -1.265625 L 1.59375 -7.5 C 2.925781 -6.8125 4.3125 -6.273438 5.75 -5.890625 C 7.1875 -5.515625 8.503906 -5.328125 9.703125 -5.328125 C 10.742188 -5.328125 11.503906 -5.503906 11.984375 -5.859375 C 12.460938 -6.222656 12.703125 -6.6875 12.703125 -7.25 C 12.703125 -7.601562 12.601562 -7.910156 12.40625 -8.171875 C 12.21875 -8.441406 11.910156 -8.710938 11.484375 -8.984375 C 11.054688 -9.253906 9.910156 -9.804688 8.046875 -10.640625 C 6.359375 -11.410156 5.09375 -12.15625 4.25 -12.875 C 3.40625 -13.59375 2.78125 -14.414062 2.375 -15.34375 C 1.96875 -16.269531 1.765625 -17.375 1.765625 -18.65625 C 1.765625 -21.03125 2.628906 -22.882812 4.359375 -24.21875 C 6.097656 -25.550781 8.484375 -26.21875 11.515625 -26.21875 C 14.179688 -26.21875 16.90625 -25.597656 19.6875 -24.359375 L 17.546875 -18.96875 C 15.140625 -20.070312 13.054688 -20.625 11.296875 -20.625 C 10.390625 -20.625 9.726562 -20.460938 9.3125 -20.140625 C 8.90625 -19.828125 8.703125 -19.4375 8.703125 -18.96875 C 8.703125 -18.457031 8.960938 -18 9.484375 -17.59375 C 10.003906 -17.195312 11.425781 -16.472656 13.75 -15.421875 C 15.976562 -14.410156 17.523438 -13.332031 18.390625 -12.1875 C 19.253906 -11.039062 19.6875 -9.59375 19.6875 -7.84375 Z M 19.6875 -7.84375 "/></g></g></g><g fill="#000000" fill-opacity="1"><g transform="translate(182.119553, 51.079402)"><g><path d="M 27.40625 0 L 18.25 0 L 8.796875 -18.203125 L 8.640625 -18.203125 C 8.867188 -15.335938 8.984375 -13.15625 8.984375 -11.65625 L 8.984375 0 L 2.796875 0 L 2.796875 -25.84375 L 11.921875 -25.84375 L 21.3125 -7.890625 L 21.421875 -7.890625 C 21.253906 -10.492188 21.171875 -12.582031 21.171875 -14.15625 L 21.171875 -25.84375 L 27.40625 -25.84375 Z M 27.40625 0 "/></g></g></g><g fill="#000000" fill-opacity="1"><g transform="translate(214.118734, 51.079402)"><g/></g></g><g fill="#000000" fill-opacity="1"><g transform="translate(225.333956, 51.079402)"><g/></g></g><g fill="#000000" fill-opacity="1"><g transform="translate(236.542621, 51.079402)"><g><path d="M 14.296875 -20.484375 C 12.640625 -20.484375 11.34375 -19.800781 10.40625 -18.4375 C 9.476562 -17.082031 9.015625 -15.207031 9.015625 -12.8125 C 9.015625 -7.84375 10.90625 -5.359375 14.6875 -5.359375 C 15.832031 -5.359375 16.941406 -5.515625 18.015625 -5.828125 C 19.085938 -6.148438 20.164062 -6.535156 21.25 -6.984375 L 21.25 -1.078125 C 19.09375 -0.117188 16.65625 0.359375 13.9375 0.359375 C 10.03125 0.359375 7.035156 -0.769531 4.953125 -3.03125 C 2.878906 -5.300781 1.84375 -8.570312 1.84375 -12.84375 C 1.84375 -15.519531 2.34375 -17.867188 3.34375 -19.890625 C 4.351562 -21.921875 5.800781 -23.484375 7.6875 -24.578125 C 9.582031 -25.671875 11.8125 -26.21875 14.375 -26.21875 C 17.164062 -26.21875 19.832031 -25.609375 22.375 -24.390625 L 20.234375 -18.890625 C 19.285156 -19.335938 18.332031 -19.710938 17.375 -20.015625 C 16.414062 -20.328125 15.390625 -20.484375 14.296875 -20.484375 Z M 14.296875 -20.484375 "/></g></g></g><g fill="#000000" fill-opacity="1"><g transform="translate(261.847117, 51.079402)"><g><path d="M 24.875 0 L 16.984375 0 L 11.875 -9.875 L 9.8125 -8.640625 L 9.8125 0 L 2.796875 0 L 2.796875 -25.84375 L 9.8125 -25.84375 L 9.8125 -14.625 C 10.164062 -15.3125 10.878906 -16.410156 11.953125 -17.921875 L 17.375 -25.84375 L 25.015625 -25.84375 L 16.859375 -14.265625 Z M 24.875 0 "/></g></g></g><g clip-path="url(#id43)"><g clip-path="url(#id44)"><g clip-path="url(#id45)"><path fill="#e78d00" d="M 224.863281 25.820312 C 224.953125 25.730469 225.078125 25.679688 225.210938 25.675781 C 225.40625 25.675781 225.585938 25.796875 225.660156 25.980469 L 235.027344 48.53125 C 235.121094 48.75 235.039062 49.007812 234.839844 49.132812 C 234.679688 49.234375 230.839844 51.636719 225.207031 51.636719 C 219.578125 51.636719 215.738281 49.234375 215.578125 49.132812 C 215.375 49.003906 215.296875 48.75 215.390625 48.53125 L 224.757812 25.980469 C 224.78125 25.917969 224.816406 25.867188 224.863281 25.820312 Z M 233.957031 48.507812 L 225.210938 27.449219 L 216.460938 48.507812 C 217.515625 49.078125 220.824219 50.65625 225.210938 50.65625 C 229.609375 50.65625 232.90625 49.082031 233.957031 48.507812 Z M 233.957031 48.507812 " fill-opacity="1" fill-rule="nonzero"/></g></g></g><g clip-path="url(#id46)"><g clip-path="url(#id47)"><g clip-path="url(#id48)"><path fill="#e78d00" d="M 217.230469 44.554688 C 217.421875 44.363281 217.730469 44.363281 217.921875 44.554688 C 217.941406 44.574219 219.972656 46.492188 225.210938 46.492188 C 230.445312 46.492188 232.476562 44.574219 232.496094 44.554688 C 232.691406 44.363281 233 44.367188 233.1875 44.558594 C 233.378906 44.75 233.378906 45.058594 233.1875 45.25 C 233.097656 45.339844 230.898438 47.476562 225.210938 47.476562 C 219.519531 47.476562 217.320312 45.339844 217.230469 45.25 C 217.039062 45.058594 217.039062 44.746094 217.230469 44.554688 Z M 217.230469 44.554688 " fill-opacity="1" fill-rule="nonzero"/></g></g></g><g clip-path="url(#id49)"><g clip-path="url(#id50)"><g clip-path="url(#id51)"><path fill="#e78d00" d="M 221.824219 33.136719 C 221.855469 33.105469 221.890625 33.078125 221.929688 33.058594 C 222.886719 32.519531 224.089844 32.683594 224.863281 33.453125 C 225.820312 34.410156 225.820312 35.964844 224.863281 36.921875 C 223.90625 37.878906 222.347656 37.878906 221.394531 36.921875 C 221.097656 36.628906 220.886719 36.265625 220.773438 35.84375 C 220.742188 35.738281 220.75 35.625 220.792969 35.523438 L 221.71875 33.296875 C 221.742188 33.238281 221.777344 33.183594 221.824219 33.136719 Z M 224.167969 36.230469 C 224.742188 35.65625 224.742188 34.722656 224.167969 34.148438 C 223.746094 33.726562 223.101562 33.609375 222.554688 33.84375 L 221.769531 35.734375 C 221.839844 35.925781 221.949219 36.089844 222.085938 36.230469 C 222.660156 36.804688 223.59375 36.804688 224.167969 36.230469 Z M 224.167969 36.230469 " fill-opacity="1" fill-rule="nonzero"/></g></g></g><g clip-path="url(#id52)"><g clip-path="url(#id53)"><g clip-path="url(#id54)"><path fill="#e78d00" d="M 227.636719 36.921875 C 228.164062 36.398438 228.894531 36.144531 229.644531 36.230469 C 229.820312 36.25 229.976562 36.363281 230.042969 36.527344 L 231.355469 39.683594 C 231.421875 39.847656 231.394531 40.039062 231.285156 40.179688 C 231.210938 40.277344 231.164062 40.335938 231.105469 40.394531 C 230.148438 41.351562 228.59375 41.347656 227.636719 40.394531 C 226.683594 39.4375 226.679688 37.878906 227.636719 36.921875 Z M 229.261719 37.199219 C 228.90625 37.222656 228.582031 37.367188 228.332031 37.617188 C 227.757812 38.191406 227.757812 39.125 228.332031 39.699219 C 228.878906 40.246094 229.753906 40.273438 230.332031 39.777344 Z M 229.261719 37.199219 " fill-opacity="1" fill-rule="nonzero"/></g></g></g><g clip-path="url(#id55)"><g clip-path="url(#id56)"><g clip-path="url(#id57)"><path fill="#e78d00" d="M 224.863281 27.210938 C 225.011719 27.058594 225.191406 26.925781 225.414062 26.804688 C 225.535156 26.738281 225.679688 26.726562 225.8125 26.773438 C 225.945312 26.816406 226.050781 26.917969 226.105469 27.046875 L 227.59375 30.632812 C 227.648438 30.761719 227.644531 30.90625 227.585938 31.035156 C 227.523438 31.160156 227.410156 31.253906 227.277344 31.292969 C 226.414062 31.542969 225.488281 31.304688 224.863281 30.679688 C 223.90625 29.722656 223.90625 28.167969 224.863281 27.210938 Z M 226.4375 30.402344 L 225.449219 28.023438 C 224.984375 28.601562 225.019531 29.449219 225.554688 29.984375 C 225.796875 30.222656 226.105469 30.367188 226.4375 30.402344 Z M 226.4375 30.402344 " fill-opacity="1" fill-rule="nonzero"/></g></g></g><g clip-path="url(#id58)"><g clip-path="url(#id59)"><g clip-path="url(#id60)"><path fill="#e78d00" d="M 219.027344 39.863281 C 219.144531 39.75 219.3125 39.695312 219.476562 39.730469 C 219.945312 39.832031 220.367188 40.058594 220.699219 40.394531 C 221.65625 41.347656 221.65625 42.90625 220.699219 43.863281 C 219.882812 44.675781 218.59375 44.8125 217.628906 44.183594 C 217.429688 44.054688 217.351562 43.804688 217.445312 43.585938 L 218.925781 40.023438 C 218.949219 39.960938 218.984375 39.910156 219.027344 39.863281 Z M 220.003906 43.167969 C 220.578125 42.59375 220.578125 41.660156 220.003906 41.085938 C 219.902344 40.984375 219.78125 40.894531 219.652344 40.828125 L 218.527344 43.53125 C 219.039062 43.6875 219.613281 43.558594 220.003906 43.167969 Z M 220.003906 43.167969 " fill-opacity="1" fill-rule="nonzero"/></g></g></g><g clip-path="url(#id61)"><g clip-path="url(#id62)"><g clip-path="url(#id63)"><path fill="#e78d00" d="M 223.476562 41.085938 C 224.429688 40.128906 225.988281 40.128906 226.945312 41.085938 C 227.898438 42.042969 227.902344 43.597656 226.945312 44.554688 C 225.988281 45.511719 224.429688 45.511719 223.476562 44.554688 C 222.519531 43.601562 222.519531 42.042969 223.476562 41.085938 Z M 226.25 43.863281 C 226.824219 43.289062 226.824219 42.355469 226.25 41.78125 C 225.675781 41.207031 224.742188 41.207031 224.167969 41.78125 C 223.59375 42.355469 223.59375 43.289062 224.167969 43.863281 C 224.742188 44.4375 225.675781 44.4375 226.25 43.863281 Z M 226.25 43.863281 " fill-opacity="1" fill-rule="nonzero"/></g></g></g><g clip-path="url(#id64)"><g clip-path="url(#id65)"><g clip-path="url(#id66)"><path fill="#f8c700" d="M 223.503906 25.117188 C 223.59375 25.027344 223.71875 24.972656 223.851562 24.972656 C 224.046875 24.972656 224.226562 25.089844 224.300781 25.273438 L 233.667969 47.824219 C 233.761719 48.046875 233.679688 48.300781 233.480469 48.425781 C 233.320312 48.527344 229.476562 50.929688 223.847656 50.933594 C 218.21875 50.933594 214.378906 48.527344 214.21875 48.425781 C 214.015625 48.300781 213.9375 48.042969 214.03125 47.824219 L 223.398438 25.273438 C 223.421875 25.214844 223.457031 25.160156 223.503906 25.117188 Z M 232.597656 47.804688 L 223.851562 26.742188 L 215.101562 47.804688 C 216.15625 48.375 219.464844 49.953125 223.851562 49.953125 C 228.25 49.953125 231.546875 48.375 232.597656 47.804688 Z M 232.597656 47.804688 " fill-opacity="1" fill-rule="nonzero"/></g></g></g><g clip-path="url(#id67)"><g clip-path="url(#id68)"><g clip-path="url(#id69)"><path fill="#f8c700" d="M 215.871094 43.851562 C 216.0625 43.660156 216.371094 43.660156 216.5625 43.847656 C 216.582031 43.871094 218.613281 45.789062 223.851562 45.789062 C 229.085938 45.789062 231.117188 43.867188 231.136719 43.847656 C 231.332031 43.660156 231.640625 43.664062 231.828125 43.855469 C 232.019531 44.046875 232.019531 44.351562 231.828125 44.542969 C 231.738281 44.636719 229.539062 46.769531 223.851562 46.769531 C 218.160156 46.769531 215.960938 44.636719 215.871094 44.542969 C 215.679688 44.351562 215.679688 44.042969 215.871094 43.851562 Z M 215.871094 43.851562 " fill-opacity="1" fill-rule="nonzero"/></g></g></g><g clip-path="url(#id70)"><g clip-path="url(#id71)"><g clip-path="url(#id72)"><path fill="#f8c700" d="M 220.464844 32.433594 C 220.496094 32.402344 220.53125 32.375 220.570312 32.351562 C 221.527344 31.816406 222.730469 31.976562 223.503906 32.75 C 224.457031 33.707031 224.460938 35.261719 223.503906 36.21875 C 222.546875 37.175781 220.988281 37.175781 220.035156 36.21875 C 219.738281 35.921875 219.527344 35.558594 219.414062 35.136719 C 219.382812 35.03125 219.390625 34.917969 219.433594 34.816406 L 220.359375 32.589844 C 220.382812 32.53125 220.417969 32.480469 220.464844 32.433594 Z M 222.808594 35.523438 C 223.382812 34.949219 223.382812 34.015625 222.808594 33.441406 C 222.386719 33.019531 221.742188 32.902344 221.195312 33.136719 L 220.40625 35.027344 C 220.480469 35.21875 220.589844 35.386719 220.726562 35.523438 C 221.300781 36.097656 222.234375 36.097656 222.808594 35.523438 Z M 222.808594 35.523438 " fill-opacity="1" fill-rule="nonzero"/></g></g></g><g clip-path="url(#id73)"><g clip-path="url(#id74)"><g clip-path="url(#id75)"><path fill="#f8c700" d="M 226.277344 36.21875 C 226.804688 35.695312 227.535156 35.441406 228.285156 35.523438 C 228.460938 35.542969 228.617188 35.660156 228.683594 35.824219 L 229.996094 38.980469 C 230.0625 39.144531 230.035156 39.332031 229.925781 39.472656 C 229.847656 39.574219 229.804688 39.632812 229.746094 39.6875 C 228.789062 40.644531 227.234375 40.644531 226.277344 39.6875 C 225.320312 38.730469 225.320312 37.175781 226.277344 36.21875 Z M 227.902344 36.492188 C 227.546875 36.519531 227.222656 36.664062 226.972656 36.914062 C 226.398438 37.484375 226.398438 38.421875 226.972656 38.992188 C 227.519531 39.539062 228.394531 39.566406 228.972656 39.070312 Z M 227.902344 36.492188 " fill-opacity="1" fill-rule="nonzero"/></g></g></g><g clip-path="url(#id76)"><g clip-path="url(#id77)"><g clip-path="url(#id78)"><path fill="#f8c700" d="M 223.503906 26.503906 C 223.652344 26.355469 223.832031 26.222656 224.054688 26.101562 C 224.175781 26.03125 224.320312 26.019531 224.453125 26.066406 C 224.585938 26.113281 224.691406 26.210938 224.746094 26.339844 L 226.234375 29.929688 C 226.289062 30.054688 226.285156 30.203125 226.226562 30.328125 C 226.164062 30.457031 226.050781 30.550781 225.917969 30.585938 C 225.054688 30.835938 224.128906 30.601562 223.503906 29.972656 C 222.546875 29.015625 222.546875 27.460938 223.503906 26.503906 Z M 225.078125 29.695312 L 224.089844 27.320312 C 223.625 27.894531 223.660156 28.746094 224.195312 29.28125 C 224.433594 29.519531 224.746094 29.664062 225.078125 29.695312 Z M 225.078125 29.695312 " fill-opacity="1" fill-rule="nonzero"/></g></g></g><g clip-path="url(#id79)"><g clip-path="url(#id80)"><g clip-path="url(#id81)"><path fill="#f8c700" d="M 217.667969 39.160156 C 217.785156 39.046875 217.953125 38.992188 218.117188 39.027344 C 218.585938 39.125 219.003906 39.355469 219.339844 39.6875 C 220.296875 40.644531 220.296875 42.199219 219.339844 43.15625 C 218.523438 43.972656 217.234375 44.105469 216.269531 43.480469 C 216.070312 43.351562 215.992188 43.097656 216.085938 42.878906 L 217.566406 39.320312 C 217.589844 39.257812 217.625 39.203125 217.667969 39.160156 Z M 218.644531 42.464844 C 219.21875 41.890625 219.21875 40.957031 218.644531 40.382812 C 218.542969 40.277344 218.421875 40.191406 218.292969 40.121094 L 217.167969 42.828125 C 217.679688 42.984375 218.253906 42.855469 218.644531 42.464844 Z M 218.644531 42.464844 " fill-opacity="1" fill-rule="nonzero"/></g></g></g><g clip-path="url(#id82)"><g clip-path="url(#id83)"><g clip-path="url(#id84)"><path fill="#f8c700" d="M 222.113281 40.382812 C 223.070312 39.425781 224.628906 39.425781 225.585938 40.382812 C 226.539062 41.335938 226.542969 42.894531 225.585938 43.851562 C 224.628906 44.808594 223.070312 44.808594 222.113281 43.851562 C 221.160156 42.894531 221.160156 41.339844 222.113281 40.382812 Z M 224.890625 43.15625 C 225.464844 42.582031 225.464844 41.648438 224.890625 41.074219 C 224.316406 40.5 223.382812 40.5 222.808594 41.074219 C 222.234375 41.648438 222.234375 42.582031 222.808594 43.15625 C 223.382812 43.730469 224.316406 43.730469 224.890625 43.15625 Z M 224.890625 43.15625 " fill-opacity="1" fill-rule="nonzero"/></g></g></g></svg>